<svg width="93" height="81" viewBox="0 0 93 81" fill="none" xmlns="http://www.w3.org/2000/svg">
<path d="M31.6368 28V36" stroke="#C3C7D0" stroke-width="0.6" stroke-linecap="round"/>
<path d="M35.6368 32L27.6368 32" stroke="#C3C7D0" stroke-width="0.6" stroke-linecap="round"/>
<path d="M9.09283 0C9.09283 0.165685 9.22793 0.299805 9.39362 0.299805H12.46C12.6257 0.299757 12.7598 0.165656 12.7598 0H15.2266C15.2266 0.165596 15.3609 0.29966 15.5264 0.299805H18.5938C18.7386 0.299637 18.8598 0.197137 18.8878 0.0605469L18.8936 0H21.3604L21.3663 0.0605469C21.3943 0.197214 21.5153 0.299804 21.6602 0.299805H24.7266C24.8715 0.299805 24.9925 0.19718 25.0206 0.0605469L25.0274 0H27.4942L27.5001 0.0605469C27.5281 0.197188 27.6491 0.299805 27.794 0.299805H30.8604C31.0261 0.299805 31.1602 0.165685 31.1602 0H33.627C33.627 0.165538 33.7613 0.299566 33.9268 0.299805H36.9942C37.1598 0.299707 37.294 0.165625 37.294 0H39.7608L39.7667 0.0605469C39.7946 0.197177 39.9157 0.299722 40.0606 0.299805H43.128C43.2728 0.299593 43.394 0.197118 43.4219 0.0605469L43.4278 0H45.8946L45.9005 0.0605469C45.9285 0.197206 46.0495 0.299805 46.1944 0.299805H49.2608C49.4265 0.299805 49.5606 0.165685 49.5606 0H52.0274C52.0274 0.165685 52.1625 0.299805 52.3282 0.299805H55.3946C55.5603 0.299803 55.6944 0.165685 55.6944 0H58.1612C58.1612 0.165568 58.2955 0.299614 58.461 0.299805H59.9952C60.4973 0.299864 60.9755 0.400372 61.4112 0.581055C61.5604 0.642703 61.7288 0.573921 61.796 0.428711C62.558 0.813819 63.179 1.43544 63.5645 2.19727C63.4197 2.26471 63.3523 2.43497 63.4141 2.58398C63.5948 3.01977 63.6944 3.49783 63.6944 4V5.43945C63.6944 5.60514 63.8295 5.73926 63.9952 5.73926V8.01953C63.8295 8.01953 63.6944 8.15365 63.6944 8.31934V11.1982C63.6944 11.3639 63.8295 11.498 63.9952 11.498V13.7783C63.8295 13.7783 63.6944 13.9124 63.6944 14.0781V16.957C63.6944 17.1227 63.8295 17.2568 63.9952 17.2568V19.5361C63.8295 19.5361 63.6944 19.6712 63.6944 19.8369V22.7158C63.6944 22.8815 63.8295 23.0156 63.9952 23.0156V25.2949C63.8295 25.2949 63.6944 25.43 63.6944 25.5957V28.4746C63.6944 28.6403 63.8295 28.7744 63.9952 28.7744V31.0537C63.8295 31.0537 63.6944 31.1888 63.6944 31.3545V34.2334C63.6944 34.3991 63.8295 34.5332 63.9952 34.5332V36.8125C63.8295 36.8125 63.6944 36.9476 63.6944 37.1133V38.5527C63.6944 39.4177 63.3914 40.2552 62.838 40.9199L61.9444 41.9932C61.8386 42.1202 61.8558 42.3089 61.9825 42.415L60.5792 44.0996C60.4679 44.0078 60.3099 44.0099 60.2012 44.0967L60.1573 44.1396L58.3702 46.2852C58.2646 46.4122 58.2818 46.6009 58.4083 46.707L57.0059 48.3926C56.8945 48.2999 56.736 48.3015 56.627 48.3887L56.584 48.4307L54.7969 50.5771C54.691 50.7043 54.708 50.8929 54.835 50.999L53.4317 52.6836C53.3202 52.5913 53.1615 52.5934 53.0528 52.6807L53.0098 52.7227L51.2227 54.8691C51.1172 54.9961 51.1345 55.1839 51.2608 55.29L49.8575 56.9756C49.7302 56.8703 49.5414 56.8876 49.4356 57.0146L47.6485 59.1611C47.5429 59.2884 47.5604 59.4771 47.6876 59.583L46.2833 61.2676C46.172 61.1757 46.014 61.1769 45.9053 61.2637L45.8624 61.3066L44.9688 62.3799C44.8378 62.5372 44.6947 62.6818 44.5421 62.8135L44.3858 62.9414C44.2583 63.04 44.2331 63.2201 44.3253 63.3506C44.0029 63.563 43.6518 63.7271 43.2823 63.8389C43.2461 63.7043 43.1247 63.6137 42.9893 63.6162L42.9297 63.624C42.6681 63.6823 42.3981 63.7119 42.1251 63.7119H40.5694C40.4039 63.7121 40.2697 63.8462 40.2696 64.0117H37.7589C37.7587 63.8463 37.6245 63.7121 37.459 63.7119H34.3477C34.1821 63.7119 34.0481 63.8462 34.0479 64.0117H31.5362C31.536 63.8462 31.402 63.7119 31.2364 63.7119H28.126C27.9604 63.7119 27.8254 63.8462 27.8253 64.0117H25.3145C25.3144 63.8462 25.1803 63.712 25.0147 63.7119H21.9034C21.7379 63.712 21.6037 63.8462 21.6036 64.0117H19.0928C19.0927 63.8463 18.9584 63.7122 18.793 63.7119H15.6817C15.5161 63.7119 15.382 63.8462 15.3819 64.0117H12.8702C12.87 63.8462 12.736 63.7119 12.5704 63.7119H9.46002C9.29443 63.7119 9.15938 63.8462 9.15924 64.0117H6.6485C6.64835 63.8462 6.51422 63.712 6.34869 63.7119H4.79303C4.2909 63.7119 3.81278 63.6123 3.37701 63.4316L3.31842 63.4141C3.18552 63.3884 3.04901 63.4557 2.9903 63.582C2.22849 63.1966 1.60687 62.5755 1.22174 61.8135C1.36713 61.7463 1.43599 61.577 1.37408 61.4277L1.30963 61.2627C1.16946 60.8724 1.09283 60.4511 1.09283 60.0117V58.4561C1.09281 58.2904 0.958699 58.1562 0.79303 58.1562V55.6445C0.937842 55.6445 1.05882 55.5417 1.08698 55.4053L1.09283 55.3447V52.2324C1.09277 52.0668 0.958674 51.9326 0.79303 51.9326V49.4209C0.937869 49.4209 1.05885 49.3182 1.08698 49.1816L1.09283 49.1211V46.0088C1.09272 45.8432 0.958647 45.709 0.79303 45.709V43.1973C0.937894 43.1973 1.05888 43.0946 1.08698 42.958L1.09283 42.8975V39.7852C1.09268 39.6196 0.958622 39.4854 0.79303 39.4854V36.9736C0.93792 36.9736 1.05891 36.871 1.08698 36.7344L1.09283 36.6738V33.5615C1.09264 33.396 0.958596 33.2617 0.79303 33.2617V30.75C0.937947 30.75 1.05894 30.6474 1.08698 30.5107L1.09283 30.4502V27.3379C1.0926 27.1724 0.958569 27.0381 0.79303 27.0381V24.5264C0.937975 24.5264 1.05897 24.4238 1.08698 24.2871L1.09283 24.2266V21.1152C1.09283 20.9495 0.958715 20.8145 0.79303 20.8145V18.3027C0.958715 18.3027 1.09283 18.1686 1.09283 18.0029V14.8916C1.09283 14.7259 0.958715 14.5908 0.79303 14.5908V12.0791C0.958715 12.0791 1.09283 11.945 1.09283 11.7793V8.66797C1.09283 8.50228 0.958715 8.36719 0.79303 8.36719V5.85547C0.958715 5.85547 1.09283 5.72135 1.09283 5.55566V4C1.09283 3.56051 1.16941 3.13942 1.30963 2.74902L1.37408 2.58398C1.43606 2.43454 1.36746 2.26432 1.22174 2.19727C1.607 1.43556 2.22859 0.813968 2.9903 0.428711C3.04872 0.55569 3.1852 0.624301 3.31842 0.598633L3.37701 0.581055C3.81285 0.400329 4.2908 0.299805 4.79303 0.299805H6.32623C6.49192 0.299805 6.62604 0.165685 6.62604 0H9.09283Z" fill="#FAFBFD" stroke="#C3C7D0" stroke-width="0.6" stroke-linecap="round" stroke-dasharray="3 3"/>
<path d="M53.8254 20.1842C55.6004 18.8693 58.1051 19.2423 59.4201 21.0172L85.6926 56.4801C87.0076 58.2551 86.6345 60.7598 84.8595 62.0748L60.6457 80.0133C58.8706 81.3283 56.366 80.9554 55.0509 79.1803L28.7785 43.7174C27.4637 41.9423 27.8365 39.4377 29.6115 38.1227L53.8254 20.1842ZM72.7258 49.9996C68.5342 49.9996 65.1361 53.398 65.1359 57.5895L65.1457 57.9801C65.3425 61.8608 68.4544 64.9719 72.3351 65.1686L72.7258 65.1793C76.7861 65.1791 80.1014 61.99 80.3049 57.9801L80.3156 57.5895C80.3154 53.5291 77.1262 50.2129 73.1164 50.0094L72.7258 49.9996ZM72.7258 50.5992C76.5857 50.5994 79.7148 53.7295 79.715 57.5895C79.7149 61.4495 76.5858 64.5785 72.7258 64.5787C68.8656 64.5787 65.7357 61.4496 65.7355 57.5895C65.7357 53.7294 68.8656 50.5992 72.7258 50.5992ZM72.7248 52.5299C69.9307 52.5302 67.6653 54.7953 67.6652 57.5895C67.6652 60.3837 69.9306 62.6488 72.7248 62.649C75.5192 62.649 77.7843 60.3839 77.7843 57.5895C77.7843 54.7951 75.5191 52.5299 72.7248 52.5299ZM72.7248 53.1295C75.1878 53.1295 77.1847 55.1265 77.1847 57.5895C77.1847 60.0525 75.1878 62.0494 72.7248 62.0494C70.262 62.0491 68.2648 60.0523 68.2648 57.5895C68.2649 55.1267 70.262 53.1298 72.7248 53.1295ZM72.7258 55.0592C71.3287 55.0592 70.1957 56.1925 70.1955 57.5895L70.2082 57.8473C70.3289 59.0383 71.276 59.9853 72.467 60.1061L72.7258 60.1188C74.0356 60.1185 75.113 59.123 75.2424 57.8473L75.2551 57.5895C75.2548 56.2797 74.2593 55.2012 72.9836 55.0719L72.7258 55.0592ZM72.7258 55.6588C73.7912 55.6591 74.6552 56.524 74.6554 57.5895C74.6552 58.655 73.7912 59.5189 72.7258 59.5192C71.6601 59.5192 70.7953 58.6551 70.7951 57.5895C70.7953 56.5239 71.6601 55.6588 72.7258 55.6588Z" fill="url(#paint0_linear_123_261)"/>
<g clip-path="url(#clip0_123_261)">
<path d="M53.818 38.0198C53.3006 37.6894 52.724 37.4629 52.1201 37.3527C51.5166 37.2407 50.8972 37.2467 50.296 37.3703C50.2904 37.3711 50.2855 37.3729 50.2799 37.3737C50.6063 36.4575 50.5023 35.4027 49.9087 34.5407C48.9253 33.1127 46.9716 32.7524 45.5436 33.7358C44.1156 34.7191 43.7553 36.6729 44.7387 38.1009C45.3323 38.9629 46.2805 39.4362 47.2536 39.4592C47.2509 39.4641 47.2475 39.468 47.2447 39.473C46.9134 39.9915 46.6889 40.5626 46.5776 41.1709C46.4657 41.7743 46.4717 42.3938 46.5953 42.995C46.7156 43.584 46.9477 44.1445 47.279 44.6462C47.2864 44.6575 47.296 44.6672 47.3072 44.6748C47.3184 44.6824 47.331 44.6876 47.3442 44.6902C47.3575 44.6928 47.3711 44.6928 47.3843 44.69C47.3976 44.6873 47.4101 44.6819 47.4213 44.6743L48.0467 44.2436C48.0925 44.212 48.1039 44.1504 48.0741 44.1049C47.5408 43.2858 47.345 42.3097 47.5228 41.3451C47.7069 40.3472 48.2678 39.4815 49.1038 38.9058C49.9397 38.3302 50.9485 38.1149 51.9465 38.2989C52.9111 38.4768 53.7532 39.0079 54.3281 39.7982C54.3607 39.8434 54.4216 39.8537 54.4675 39.8221L55.0929 39.3914C55.104 39.3838 55.1135 39.374 55.1208 39.3626C55.1281 39.3512 55.133 39.3385 55.1353 39.3252C55.1376 39.3118 55.1372 39.2982 55.1341 39.285C55.131 39.2719 55.1254 39.2595 55.1174 39.2485C54.7639 38.7575 54.327 38.3438 53.818 38.0198ZM48.5582 38.1136C48.0798 38.4431 47.501 38.5666 46.929 38.4611C46.357 38.3556 45.8603 38.0338 45.5308 37.5554C45.2014 37.0769 45.0779 36.4982 45.1834 35.9261C45.2889 35.3541 45.6107 34.8574 46.0891 34.528C46.5675 34.1985 47.1463 34.075 47.7184 34.1805C48.2904 34.286 48.7871 34.6078 49.1165 35.0862C49.446 35.5647 49.5695 36.1434 49.464 36.7155C49.3585 37.2875 49.0367 37.7842 48.5582 38.1136Z" fill="#C3C7D0"/>
</g>
<path d="M45.6648 52.703L64.0149 38.9999" stroke="#C3C7D0" stroke-linecap="round"/>
<path d="M48.2664 56.2741L66.6165 42.5711" stroke="#C3C7D0" stroke-linecap="round"/>
<path d="M51.2097 60.3141L69.5599 46.611" stroke="#C3C7D0" stroke-linecap="round"/>
<g filter="url(#filter0_d_123_261)">
<path d="M80.7612 73.9726L78.4955 58.6445L91.2065 67.5054L84.6223 68.54L80.7612 73.9726Z" fill="white"/>
<path d="M80.7612 73.9726L78.4955 58.6445L91.2065 67.5054L84.6223 68.54L80.7612 73.9726Z" stroke="#C3C7D0" stroke-width="0.6"/>
</g>
<g filter="url(#filter1_d_123_261)">
<path d="M75.4339 74.5983L72.5168 56.8508L87.4355 66.8965L79.8133 68.2207L75.4339 74.5983Z" fill="#C3C7D0"/>
<path d="M75.4339 74.5983L72.5168 56.8508L87.4355 66.8965L79.8133 68.2207L75.4339 74.5983Z" stroke="white" stroke-width="0.6"/>
</g>
<path d="M41.3095 69L46.4635 75.7406" stroke="#E3E7F0" stroke-width="0.6" stroke-linecap="round"/>
<path d="M46.4155 72L49.8514 76.4938" stroke="#E3E7F0" stroke-width="0.6" stroke-linecap="round"/>
<path d="M76.4896 35.5372L71.0799 29" stroke="#E3E7F0" stroke-width="0.6" stroke-linecap="round"/>
<path d="M71.4985 33.2509L67.892 28.8928" stroke="#E3E7F0" stroke-width="0.6" stroke-linecap="round"/>
<defs>
<filter id="filter0_d_123_261" x="77.0971" y="58.001" width="15.893" height="18.7535" filterUnits="userSpaceOnUse" color-interpolation-filters="sRGB">
<feFlood flood-opacity="0" result="BackgroundImageFix"/>
<feColorMatrix in="SourceAlpha" type="matrix" values="0 0 0 0 0 0 0 0 0 0 0 0 0 0 0 0 0 0 127 0" result="hardAlpha"/>
<feOffset dy="1"/>
<feGaussianBlur stdDeviation="0.5"/>
<feComposite in2="hardAlpha" operator="out"/>
<feColorMatrix type="matrix" values="0 0 0 0 0 0 0 0 0 0 0 0 0 0 0 0 0 0 0.11 0"/>
<feBlend mode="normal" in2="BackgroundImageFix" result="effect1_dropShadow_123_261"/>
<feBlend mode="normal" in="SourceGraphic" in2="effect1_dropShadow_123_261" result="shape"/>
</filter>
<filter id="filter1_d_123_261" x="71.1081" y="56.2139" width="18.1138" height="21.1692" filterUnits="userSpaceOnUse" color-interpolation-filters="sRGB">
<feFlood flood-opacity="0" result="BackgroundImageFix"/>
<feColorMatrix in="SourceAlpha" type="matrix" values="0 0 0 0 0 0 0 0 0 0 0 0 0 0 0 0 0 0 127 0" result="hardAlpha"/>
<feOffset dy="1"/>
<feGaussianBlur stdDeviation="0.5"/>
<feComposite in2="hardAlpha" operator="out"/>
<feColorMatrix type="matrix" values="0 0 0 0 0 0 0 0 0 0 0 0 0 0 0 0 0 0 0.11 0"/>
<feBlend mode="normal" in2="BackgroundImageFix" result="effect1_dropShadow_123_261"/>
<feBlend mode="normal" in="SourceGraphic" in2="effect1_dropShadow_123_261" result="shape"/>
</filter>
<linearGradient id="paint0_linear_123_261" x1="242.72" y1="29.4032" x2="-7.76777" y2="29.4032" gradientUnits="userSpaceOnUse">
<stop stop-color="white"/>
<stop offset="1" stop-color="#E3E7F0"/>
</linearGradient>
<clipPath id="clip0_123_261">
<rect width="11.3396" height="11.3396" fill="white" transform="translate(40.5162 36.4313) rotate(-34.5519)"/>
</clipPath>
</defs>
</svg>
